<svg width="78" height="42" viewBox="0 0 78 42" fill="none" xmlns="http://www.w3.org/2000/svg">
<g clip-path="url(#clip0_473_1394)">
<path d="M31.7593 -0.0224609L31.4049 1.40411C30.8249 4.195 28.3522 6.19912 25.4692 6.19912H11.634C7.76219 6.19912 4.42124 8.888 3.62925 12.6438L3.51562 13.1781H24.5704C28.5405 13.1781 31.7593 9.98775 31.7593 6.05214V-0.0224609Z" fill="white"/>
<path d="M12.582 32.3771H0L1.26515 26.2835C1.69698 24.262 2.79619 22.4528 4.37908 21.1583C5.96198 19.8638 7.93266 19.1624 9.96178 19.1714H22.2283V22.6574C22.2283 28.0283 17.9105 32.3771 12.582 32.3771Z" fill="white"/>
<path d="M37.7985 19.1627L37.7866 19.2371C37.6657 19.9275 37.3108 20.5526 36.7838 21.0033C36.2569 21.454 35.5913 21.7016 34.9035 21.7029H32.0748L31.5948 24.5543H35.5463C35.4222 25.2415 35.0657 25.8626 34.539 26.3096C34.0123 26.7567 33.3486 27.0013 32.6632 27.0011H31.1522L30.6536 29.9113C30.5348 30.6034 30.1807 31.2308 29.6535 31.6833C29.1263 32.1358 28.4597 32.3845 27.7705 32.3857H27.0769L29.3664 19.1714L37.7985 19.1627Z" fill="white"/>
<path d="M47.7314 25.5157C47.246 26.1747 46.6087 26.7015 45.8761 27.0495C45.0122 27.4569 44.0683 27.6568 43.1168 27.634H41.1597L40.8833 29.2075C40.728 30.0962 40.2709 30.9008 39.5921 31.4803C38.9134 32.0598 38.0563 32.3773 37.171 32.3771L39.4604 19.1627H44.5753C45.932 19.1627 46.9535 19.4671 47.6398 20.0757C48.3261 20.6844 48.6709 21.5092 48.6743 22.5502C48.6761 22.8401 48.6511 23.1296 48.5997 23.4148C48.4792 24.1758 48.1814 24.8963 47.7314 25.5157ZM45.3876 23.4165C45.4069 23.2731 45.4188 23.1288 45.4233 22.9842C45.4334 22.8098 45.4047 22.6353 45.3392 22.4739C45.2737 22.3124 45.1731 22.1683 45.0451 22.0522C44.7924 21.8326 44.4091 21.7219 43.8918 21.7219H42.1739L41.6024 25.1111H43.2983C44.4809 25.1111 45.1773 24.5462 45.3876 23.4165Z" fill="white"/>
<path d="M50.4177 31.5765C49.537 30.9563 49.0972 30.075 49.0983 28.9326C49.1019 28.7626 49.1144 28.5929 49.1356 28.4242H52.2001C52.2571 28.4247 52.3116 28.4479 52.3519 28.489C52.3922 28.5301 52.4151 28.5857 52.4155 28.6438C52.4099 28.9801 52.5313 29.3058 52.7547 29.5534C53.0136 29.83 53.4093 29.9684 53.9418 29.9684C54.3449 29.991 54.7441 29.878 55.0781 29.6467C55.2143 29.5423 55.3234 29.4054 55.3958 29.2481C55.4682 29.0907 55.5018 28.9177 55.4936 28.7441C55.4946 28.5487 55.4467 28.3562 55.3544 28.185C55.2621 28.0137 55.1285 27.8693 54.9661 27.7654C54.4512 27.4274 53.904 27.1435 53.333 26.9181C52.7329 26.6735 52.1498 26.3876 51.5879 26.0621C51.1271 25.7811 50.7281 25.4061 50.416 24.9607C50.069 24.4468 49.8941 23.8324 49.9174 23.209C49.8863 22.4074 50.106 21.6165 50.5449 20.9507C50.9922 20.2971 51.6137 19.7877 52.3358 19.4826C53.1628 19.1317 54.0519 18.9586 54.9475 18.9742C55.7583 18.9577 56.5646 19.1016 57.3218 19.3979C57.9605 19.6409 58.5177 20.0651 58.9278 20.6204C59.3147 21.1711 59.5159 21.8349 59.501 22.5121C59.5032 22.6507 59.497 22.7893 59.4823 22.9271H56.3466C56.3183 22.9269 56.2902 22.921 56.2642 22.9096C56.2381 22.8982 56.2145 22.8817 56.1948 22.8609C56.1751 22.8401 56.1596 22.8156 56.1492 22.7887C56.1389 22.7617 56.1339 22.733 56.1346 22.7041C56.1412 22.5417 56.1121 22.3798 56.0496 22.2302C55.9872 22.0807 55.8928 21.9472 55.7734 21.8395C55.4968 21.607 55.1442 21.4896 54.7864 21.5109C54.4002 21.4928 54.0194 21.6086 53.7061 21.8395C53.5716 21.9436 53.4637 22.0792 53.3913 22.2348C53.319 22.3904 53.2845 22.5614 53.2906 22.7335C53.2919 22.9225 53.3391 23.1082 53.4278 23.2741C53.5166 23.4401 53.6442 23.581 53.7994 23.6845C54.3058 24.0336 54.8435 24.3329 55.4054 24.5785C56.0169 24.8565 56.612 25.1706 57.1878 25.5192C57.6573 25.8181 58.0615 26.2125 58.3749 26.6777C58.7198 27.203 58.8942 27.8253 58.8735 28.4571C58.8837 29.2005 58.6707 29.9294 58.263 30.5459C57.8289 31.187 57.224 31.688 56.5196 31.9898C55.6731 32.3523 54.7613 32.529 53.8434 32.5085C52.4392 32.5085 51.2973 32.1978 50.4177 31.5765Z" fill="white"/>
<path d="M29.4173 36.1865V36.6361H27.6128V38.0644H29.0781V38.514H27.6128V40.4161H27.0701V36.1865H29.4173Z" fill="white"/>
<path d="M32.2596 40.4212L31.2692 38.6921H30.6146V40.4212H30.0719V36.1865H31.4133C31.6873 36.1784 31.9594 36.2346 32.2087 36.3508C32.4101 36.4465 32.5789 36.6012 32.6937 36.7952C32.7967 36.9665 32.8567 37.161 32.8688 37.3615C32.8808 37.5621 32.8443 37.7626 32.7626 37.9454C32.6809 38.1282 32.5564 38.2878 32.4001 38.4102C32.2438 38.5325 32.0605 38.6139 31.8661 38.6471L32.9007 40.4212H32.2596ZM30.6146 38.2459H31.4133C31.6538 38.2644 31.8917 38.1848 32.0747 38.0246C32.1491 37.9462 32.207 37.8532 32.2449 37.7512C32.2828 37.6492 32.2999 37.5405 32.2952 37.4315C32.3015 37.3241 32.2853 37.2165 32.2476 37.116C32.2098 37.0155 32.1515 36.9244 32.0764 36.8488C31.8888 36.6973 31.6519 36.6238 31.4133 36.643H30.6146V38.2459Z" fill="white"/>
<path d="M34.237 36.1865V40.4213H33.6943V36.1865H34.237Z" fill="white"/>
<path d="M39.1755 38.303C38.9404 38.5336 38.5803 38.6489 38.0952 38.6489H37.2965V40.4178H36.7504V36.1865H38.0901C38.5582 36.1865 38.9144 36.3018 39.1586 36.5324C39.2735 36.6476 39.3651 36.7848 39.4279 36.9361C39.4908 37.0875 39.5237 37.25 39.5248 37.4143C39.5259 37.5787 39.4952 37.7416 39.4344 37.8938C39.3736 38.046 39.2839 38.1845 39.1704 38.3013L39.1755 38.303ZM38.7617 37.997C38.836 37.9234 38.8937 37.8343 38.9309 37.7358C38.968 37.6373 38.9838 37.5317 38.9771 37.4263C38.9771 36.9076 38.682 36.643 38.0952 36.643H37.2965V38.1993H38.0952C38.3326 38.2175 38.5683 38.1454 38.7566 37.997H38.7617Z" fill="white"/>
<path d="M43.0931 37.0926V40.4213H42.5521V39.9285C42.4472 40.0996 42.2974 40.2374 42.1196 40.3262C41.9302 40.4227 41.7209 40.4719 41.5091 40.4697C41.2736 40.4724 41.0409 40.4172 40.8307 40.3089C40.6274 40.1993 40.4604 40.0309 40.3508 39.8247C40.2295 39.5827 40.1711 39.313 40.1812 39.0414V37.0926H40.7018V38.9688C40.6838 39.2434 40.7714 39.5145 40.9461 39.7244C41.0325 39.8141 41.1366 39.884 41.2515 39.9296C41.3664 39.9752 41.4894 39.9954 41.6126 39.989C41.7381 39.9947 41.8635 39.9734 41.9804 39.9263C42.0973 39.8792 42.2031 39.8075 42.2909 39.7158C42.4722 39.4936 42.5621 39.2086 42.5419 38.9203V37.0926H43.0931Z" fill="white"/>
<path d="M46.5663 37.3986C46.6957 37.5402 46.7952 37.7073 46.8588 37.8896C46.9224 38.0719 46.9487 38.2656 46.936 38.4586V40.4212H46.4001V38.5382C46.4185 38.2613 46.331 37.988 46.1559 37.7756C46.0693 37.6857 45.9649 37.6157 45.8497 37.5701C45.7345 37.5244 45.6111 37.5043 45.4877 37.511C45.3622 37.5056 45.2369 37.5271 45.1201 37.5742C45.0032 37.6212 44.8973 37.6928 44.8093 37.7842C44.6278 38.0063 44.5372 38.2912 44.5566 38.5797V40.4212H44.0139V37.0926H44.5566V37.5664C44.6635 37.3954 44.815 37.2583 44.9942 37.1704C45.1846 37.0771 45.3935 37.0298 45.6047 37.0321C45.7809 37.0245 45.9567 37.0531 46.1219 37.1161C46.2871 37.179 46.4382 37.2751 46.5663 37.3986Z" fill="white"/>
<path d="M50.6348 37.0926L48.6726 41.9879H48.113L48.7557 40.3832L47.4397 37.0978H48.0417L49.0593 39.7936L50.0768 37.0978L50.6348 37.0926Z" fill="white"/>
<path d="M51.1775 37.8482C51.304 37.5994 51.4968 37.3921 51.7337 37.2499C51.9728 37.1074 52.2454 37.0339 52.5223 37.0373C52.7826 37.0303 53.0399 37.0954 53.2668 37.2257C53.4635 37.3367 53.6266 37.5006 53.7383 37.6995V37.0926H54.2861V40.4213H53.7383V39.8005C53.6233 40.0062 53.4549 40.1755 53.2516 40.2898C53.0262 40.4212 52.77 40.4876 52.5105 40.4818C52.2334 40.4854 51.9608 40.4099 51.7236 40.2639C51.4873 40.1151 51.296 39.9027 51.1707 39.65C51.0315 39.3719 50.9616 39.0631 50.9672 38.7509C50.9615 38.4367 51.0338 38.1262 51.1775 37.8482ZM53.5907 38.0938C53.4987 37.9158 53.3594 37.7678 53.1888 37.6667C53.0199 37.567 52.8277 37.5156 52.6326 37.518C52.4384 37.5155 52.247 37.5656 52.078 37.6632C51.9081 37.7634 51.7698 37.911 51.6795 38.0886C51.576 38.2906 51.5247 38.5161 51.5302 38.744C51.5246 38.9751 51.5759 39.204 51.6795 39.4097C51.7697 39.5888 51.9079 39.7381 52.078 39.8403C52.2464 39.9397 52.438 39.9911 52.6326 39.989C52.8276 39.9904 53.0196 39.9391 53.1888 39.8403C53.3603 39.7388 53.4998 39.5894 53.5907 39.4097C53.694 39.2064 53.7453 38.9798 53.74 38.7509C53.7457 38.5225 53.6943 38.2964 53.5907 38.0938Z" fill="white"/>
<path d="M57.3743 40.3141C57.1711 40.2259 56.9953 40.083 56.8656 39.9008C56.7415 39.7224 56.6745 39.5091 56.6739 39.2904H57.2522C57.2687 39.4822 57.3546 39.6609 57.4931 39.7919C57.6656 39.938 57.8866 40.0111 58.1104 39.9959C58.3307 40.0085 58.5479 39.9384 58.7209 39.7988C58.7932 39.7366 58.8509 39.6586 58.8896 39.5706C58.9284 39.4826 58.9472 39.3868 58.9448 39.2904C58.951 39.1467 58.9037 39.0059 58.8125 38.8961C58.7233 38.7931 58.611 38.7136 58.4852 38.6644C58.3119 38.5973 58.1353 38.5395 57.956 38.4915C57.7317 38.4357 57.5117 38.3629 57.298 38.2736C57.1299 38.1974 56.9839 38.0783 56.8741 37.9278C56.7509 37.7435 56.6912 37.5227 56.7045 37.3001C56.6995 37.0828 56.7585 36.869 56.8741 36.6863C56.9942 36.5039 57.1632 36.3605 57.3608 36.273C57.5869 36.1725 57.8316 36.123 58.0781 36.1277C58.4209 36.1129 58.7583 36.2178 59.0346 36.4251C59.1547 36.5193 59.254 36.6382 59.3262 36.774C59.3984 36.9099 59.4417 37.0596 59.4535 37.2137H58.8481C58.8228 37.0432 58.7326 36.8897 58.5971 36.7865C58.4305 36.6558 58.2236 36.5902 58.0137 36.6015C57.8152 36.5913 57.6196 36.6525 57.4608 36.7744C57.3891 36.8352 57.3323 36.9121 57.2949 36.9992C57.2575 37.0862 57.2406 37.181 57.2455 37.2759C57.2394 37.4138 57.2855 37.5487 57.3743 37.6529C57.4608 37.7511 57.5689 37.827 57.6898 37.8742C57.8626 37.9408 58.0387 37.9985 58.2172 38.0471C58.4424 38.1082 58.6633 38.1845 58.8786 38.2754C59.0474 38.3521 59.1944 38.471 59.306 38.6212C59.4347 38.8059 59.4981 39.0296 59.4858 39.2558C59.4859 39.4615 59.4301 39.6632 59.3246 39.8385C59.2101 40.0313 59.045 40.1876 58.8481 40.2899C58.6175 40.4087 58.3619 40.468 58.1036 40.4628C57.853 40.4659 57.6045 40.4152 57.3743 40.3141Z" fill="white"/>
<path d="M60.951 37.5474V39.51C60.9445 39.5717 60.9502 39.634 60.9676 39.6934C60.9851 39.7528 61.0141 39.808 61.0528 39.8558C61.1531 39.9334 61.2786 39.9693 61.4038 39.9561H61.8041V40.4247H61.3156C61.0713 40.4432 60.8292 40.3673 60.6373 40.212C60.5551 40.1187 60.4927 40.0092 60.4539 39.8902C60.415 39.7712 60.4007 39.6453 60.4117 39.5204V37.5474H59.9877V37.0926H60.4117V36.254H60.9527V37.0926H61.8007V37.5474H60.951Z" fill="white"/>
<path d="M62.4587 37.8483C62.5858 37.5999 62.7784 37.3926 63.0149 37.25C63.2545 37.1071 63.5277 37.0336 63.8052 37.0373C64.0655 37.0305 64.3228 37.0956 64.5497 37.2258C64.7456 37.3373 64.908 37.5011 65.0195 37.6996V37.0926H65.5673V40.4213H65.0195V39.8005C64.9061 40.0027 64.7407 40.1695 64.5413 40.283C64.3152 40.4142 64.0585 40.4805 63.7985 40.4749C63.5219 40.4786 63.2498 40.4031 63.0132 40.257C62.7765 40.1083 62.5846 39.8959 62.4587 39.6432C62.3201 39.3649 62.2508 39.0561 62.2569 38.744C62.2496 38.4329 62.319 38.1249 62.4587 37.8483ZM64.8703 38.0938C64.7787 37.9155 64.6393 37.7674 64.4683 37.6667C64.2995 37.5669 64.1073 37.5155 63.9121 37.518C63.7179 37.516 63.5267 37.5661 63.3575 37.6633C63.1876 37.7634 63.0493 37.911 62.959 38.0886C62.8555 38.2906 62.8042 38.5162 62.8097 38.744C62.8041 38.9751 62.8554 39.204 62.959 39.4097C63.0492 39.5888 63.1874 39.7381 63.3575 39.8403C63.527 39.9377 63.7183 39.9889 63.9129 39.9889C64.1075 39.9889 64.2988 39.9377 64.4683 39.8403C64.6402 39.7393 64.7798 39.5897 64.8703 39.4097C64.9735 39.2064 65.0248 38.9798 65.0195 38.7509C65.0252 38.5225 64.9739 38.2964 64.8703 38.0938Z" fill="white"/>
<path d="M67.4345 37.1894C67.6328 37.0791 67.8565 37.0248 68.0823 37.0321V37.6027H67.9382C67.331 37.6027 67.0275 37.9387 67.0275 38.6108V40.4213H66.4797V37.0926H67.0224V37.6321C67.1141 37.4465 67.2574 37.2925 67.4345 37.1894Z" fill="white"/>
<path d="M69.3627 37.5474V39.51C69.3562 39.5717 69.3619 39.634 69.3794 39.6934C69.3968 39.7528 69.4258 39.808 69.4645 39.8558C69.5648 39.9334 69.6903 39.9693 69.8155 39.9561H70.2141V40.4247H69.7257C69.4813 40.4438 69.2389 40.3678 69.0473 40.2121C68.9651 40.1187 68.9027 40.0092 68.8639 39.8902C68.8251 39.7712 68.8107 39.6453 68.8217 39.5204V37.5474H68.3978V37.0926H68.8217V36.254H69.3627V37.0926H70.2107V37.5474H69.3627Z" fill="white"/>
<path d="M73.7721 37.0926V40.4213H73.2294V39.9284C73.1247 40.0991 72.9756 40.2368 72.7987 40.3262C72.6092 40.4227 72.3999 40.4718 72.1881 40.4697C71.9526 40.4726 71.7199 40.4174 71.5098 40.3089C71.3061 40.1997 71.139 40.0312 71.0298 39.8247C70.9085 39.5827 70.8501 39.313 70.8602 39.0414V37.0926H71.3961V38.9688C71.378 39.2434 71.4656 39.5145 71.6403 39.7244C71.727 39.8143 71.8313 39.8843 71.9465 39.93C72.0617 39.9756 72.1851 39.9957 72.3085 39.989C72.4341 39.9945 72.5594 39.973 72.6762 39.926C72.7931 39.8789 72.899 39.8073 72.9869 39.7158C73.1668 39.4929 73.256 39.2082 73.2362 38.9203V37.0926H73.7721Z" fill="white"/>
<path d="M75.7088 37.2292C75.9342 37.0978 76.1904 37.0315 76.4499 37.0373C76.7274 37.0336 77.0007 37.1071 77.2402 37.25C77.4771 37.3921 77.6699 37.5995 77.7965 37.8483C77.9367 38.1248 78.0066 38.4328 78 38.744C78.0056 39.0562 77.9357 39.365 77.7965 39.6432C77.6715 39.8969 77.4788 40.1095 77.2406 40.2566C77.0024 40.4038 76.7284 40.4794 76.4499 40.4749C76.1926 40.4801 75.9388 40.4137 75.7156 40.283C75.516 40.1697 75.3484 40.0059 75.2289 39.8074V42H74.6879V37.0926H75.2289V37.7047C75.3458 37.5065 75.5111 37.3427 75.7088 37.2292ZM77.2962 38.0938C77.2055 37.9153 77.0658 37.7675 76.8943 37.6684C76.7245 37.5712 76.5327 37.5211 76.338 37.5232C76.1445 37.5211 75.954 37.5725 75.7868 37.6719C75.6147 37.7737 75.4742 37.9229 75.3815 38.1025C75.2811 38.3061 75.2289 38.5308 75.2289 38.7587C75.2289 38.9866 75.2811 39.2113 75.3815 39.4149C75.4742 39.5944 75.6147 39.7437 75.7868 39.8455C75.9557 39.9429 76.1465 39.9941 76.3405 39.9941C76.5346 39.9941 76.7254 39.9429 76.8943 39.8455C77.0661 39.7444 77.2057 39.5949 77.2962 39.4149C77.3997 39.2092 77.451 38.9803 77.4454 38.7492C77.4519 38.5196 77.4005 38.2922 77.2962 38.0886V38.0938Z" fill="white"/>
</g>
<defs>
<clipPath id="clip0_473_1394">
<rect width="78" height="42" fill="white"/>
</clipPath>
</defs>
</svg>
