<svg width="468" height="351" viewBox="0 0 468 351" fill="none" xmlns="http://www.w3.org/2000/svg">
<path d="M325.159 35.203C334.887 35.203 342.772 27.3225 342.772 17.6015C342.772 7.88046 334.887 0 325.159 0C315.431 0 307.545 7.88046 307.545 17.6015C307.545 27.3225 315.431 35.203 325.159 35.203Z" fill="#FF6584"/>
<path d="M372.374 336.08L366.03 336.211L362.494 311.279L371.856 311.085L372.374 336.08Z" fill="#FFB6B6"/>
<path d="M352.355 346.749C352.389 348.314 353.683 349.556 355.249 349.526L367.861 349.264L369.938 344.728L370.88 349.199L375.639 349.103L373.97 333.11L372.311 333.048L365.546 332.779L363.364 332.697L363.458 337.233L353.529 344.393C352.774 344.938 352.335 345.819 352.355 346.749Z" fill="#212069"/>
<path d="M415.065 336.08L408.721 336.211L405.185 311.279L414.547 311.085L415.065 336.08Z" fill="#FFB6B6"/>
<path d="M395.045 346.749C395.078 348.314 396.373 349.556 397.939 349.526L410.551 349.264L412.628 344.728L413.57 349.199L418.329 349.103L416.66 333.11L415.001 333.048L408.236 332.779L406.054 332.697L406.148 337.233L396.219 344.393C395.464 344.938 395.025 345.819 395.045 346.749Z" fill="#212069"/>
<path d="M378.768 144.389L413.696 143.419L411.756 146.328L416.175 150.691C416.175 150.691 432.13 172.506 427.279 192.382C422.428 212.258 425.159 329.764 425.159 329.764L396.717 326.667L399.87 208.137L376.585 252.737L383.355 325.041L359.121 324.97L351.359 246.92L378.768 144.389V144.389Z" fill="#212069"/>
<path d="M232.656 50.614C232.787 50.9377 233.241 50.9376 233.373 50.6139C234.289 48.3554 235.595 45.8262 237.014 43.8932C237.242 43.5838 236.928 43.1703 236.567 43.3008L233.524 44.4011V25.5754H232.505V44.4011L229.461 43.3007C229.1 43.1701 228.786 43.5837 229.014 43.8931C230.433 45.8261 231.739 48.3554 232.656 50.614H232.656Z" fill="#212069"/>
<path d="M252.612 69.9975C252.514 70.3327 252.869 70.6147 253.174 70.4429C255.297 69.244 257.893 68.0745 260.208 67.4432C260.579 67.3421 260.591 66.8235 260.226 66.7013L257.159 65.6716L268.874 50.9294L268.077 50.2963L256.361 65.0385L254.662 62.2848C254.46 61.958 253.957 62.0871 253.943 62.4707C253.852 64.8667 253.3 67.6587 252.612 69.9975Z" fill="#212069"/>
<path d="M327.021 104.394L345.833 102.227L348.572 112.794L328.601 114.378C328.176 114.817 327.681 115.204 327.118 115.516C324.058 117.215 320.199 116.113 318.499 113.055C316.799 109.997 317.901 106.141 320.962 104.442C322.913 103.359 325.187 103.419 327.021 104.394Z" fill="#FFB6B6"/>
<path d="M417.096 80.0223L409.733 68.8571C408.395 69.919 407.221 70.9868 406.334 71.9314L404.808 72.9817L399.876 77.3879L385.914 89.8439L381.27 93.992L376.086 94.9014L364.643 96.9138L347.314 101.574L334.553 102.4C334.547 102.658 334.547 103.045 334.547 103.526C334.541 106.031 334.6 111.101 335.093 113.864C335.264 114.826 335.487 115.507 335.78 115.712C335.874 115.777 345.646 112.727 346.139 112.721C350.114 112.715 356.758 113.805 370.162 112.063C378.123 111.018 385.133 110.068 388.081 109.663L388.145 109.651L390.276 108.619L413.673 97.2952L420.736 93.8746C420.149 89.1457 418.934 84.4813 417.096 80.0223V80.0223Z" fill="#AED136"/>
<path d="M13.3217 16.3934C5.96432 16.3934 0 22.3537 0 29.706V255.187H1.17423V108.907C1.17423 58.461 42.0963 17.5669 92.5766 17.5669L326.063 17.3535L325.85 16.3934H13.3217Z" fill="#212069"/>
<path d="M74.9782 53.8584C77.7203 53.8584 79.9432 51.5875 79.9432 48.7862C79.9432 45.9849 77.7203 43.714 74.9782 43.714C72.2361 43.714 70.0132 45.9849 70.0132 48.7862C70.0132 51.5875 72.2361 53.8584 74.9782 53.8584Z" fill="#212069"/>
<path d="M92.1301 53.8584C94.8722 53.8584 97.0951 51.5875 97.0951 48.7862C97.0951 45.9849 94.8722 43.714 92.1301 43.714C89.3879 43.714 87.165 45.9849 87.165 48.7862C87.165 51.5875 89.3879 53.8584 92.1301 53.8584Z" fill="#212069"/>
<path d="M109.282 53.8584C112.025 53.8584 114.247 51.5875 114.247 48.7862C114.247 45.9849 112.025 43.714 109.282 43.714C106.54 43.714 104.317 45.9849 104.317 48.7862C104.317 51.5875 106.54 53.8584 109.282 53.8584Z" fill="#212069"/>
<path d="M195.811 108.543C188.454 108.543 182.49 114.503 182.49 121.855L182.49 218.259H183.664V201.056C183.664 150.61 224.586 109.716 275.066 109.716L360.013 109.503L359.799 108.543L195.811 108.543Z" fill="#F2F2F2"/>
<path d="M245.137 168.371C244.49 168.371 243.963 168.898 243.963 169.545V187.733C243.963 188.38 244.49 188.907 245.137 188.907C245.785 188.907 246.311 188.38 246.311 187.733V169.545C246.311 168.898 245.785 168.371 245.137 168.371Z" fill="#212069"/>
<path d="M256.646 185.897C260.687 185.897 263.963 182.692 263.963 178.739C263.963 174.786 260.687 171.581 256.646 171.581C252.604 171.581 249.328 174.786 249.328 178.739C249.328 182.692 252.604 185.897 256.646 185.897Z" fill="#AED136"/>
<path d="M315.306 176.29L275.919 176.29C274.568 176.29 273.469 175.192 273.469 173.841C273.469 172.491 274.568 171.392 275.919 171.392L315.306 171.392C316.657 171.392 317.757 172.491 317.757 173.841C317.757 175.192 316.657 176.29 315.306 176.29Z" fill="#F2F2F2"/>
<path d="M346.043 184.579L275.919 184.579C274.568 184.579 273.469 183.48 273.469 182.13C273.469 180.78 274.568 179.681 275.919 179.681L346.043 179.681C347.395 179.681 348.494 180.78 348.494 182.13C348.494 183.48 347.395 184.579 346.043 184.579Z" fill="#F2F2F2"/>
<path d="M248.765 137.172C251.507 137.172 253.73 134.901 253.73 132.1C253.73 129.299 251.507 127.028 248.765 127.028C246.023 127.028 243.8 129.299 243.8 132.1C243.8 134.901 246.023 137.172 248.765 137.172Z" fill="#F2F2F2"/>
<path d="M265.917 137.172C268.659 137.172 270.882 134.901 270.882 132.1C270.882 129.299 268.659 127.028 265.917 127.028C263.175 127.028 260.952 129.299 260.952 132.1C260.952 134.901 263.175 137.172 265.917 137.172Z" fill="#F2F2F2"/>
<path d="M283.069 137.172C285.811 137.172 288.034 134.901 288.034 132.1C288.034 129.299 285.811 127.028 283.069 127.028C280.326 127.028 278.104 129.299 278.104 132.1C278.104 134.901 280.326 137.172 283.069 137.172Z" fill="#F2F2F2"/>
<path d="M53.0483 99.3929C52.4006 99.3929 51.874 99.9192 51.874 100.566V118.755C51.874 119.402 52.4006 119.928 53.0483 119.928C53.6959 119.928 54.2225 119.402 54.2225 118.755V100.566C54.2225 99.9192 53.6959 99.3929 53.0483 99.3929Z" fill="#212069"/>
<path d="M64.5567 116.919C68.5979 116.919 71.8741 113.714 71.8741 109.761C71.8741 105.807 68.5979 102.602 64.5567 102.602C60.5154 102.602 57.2393 105.807 57.2393 109.761C57.2393 113.714 60.5154 116.919 64.5567 116.919Z" fill="#AED136"/>
<path d="M123.217 107.312H83.8305C82.4793 107.312 81.3799 106.213 81.3799 104.863C81.3799 103.512 82.4793 102.414 83.8305 102.414H123.217C124.568 102.414 125.668 103.512 125.668 104.863C125.668 106.213 124.568 107.312 123.217 107.312Z" fill="#F2F2F2"/>
<path d="M153.955 115.6H83.8305C82.4793 115.6 81.3799 114.502 81.3799 113.151C81.3799 111.801 82.4793 110.702 83.8305 110.702H153.955C155.306 110.702 156.405 111.801 156.405 113.151C156.405 114.502 155.306 115.6 153.955 115.6Z" fill="#F2F2F2"/>
<path d="M53.0483 149.851C52.4006 149.851 51.874 150.377 51.874 151.024V169.212C51.874 169.859 52.4006 170.386 53.0483 170.386C53.6959 170.386 54.2225 169.859 54.2225 169.212V151.024C54.2225 150.377 53.6959 149.851 53.0483 149.851Z" fill="#212069"/>
<path d="M64.5567 167.377C68.5979 167.377 71.8741 164.172 71.8741 160.218C71.8741 156.265 68.5979 153.06 64.5567 153.06C60.5154 153.06 57.2393 156.265 57.2393 160.218C57.2393 164.172 60.5154 167.377 64.5567 167.377Z" fill="#AED136"/>
<path d="M123.217 157.769H83.8305C82.4793 157.769 81.3799 156.671 81.3799 155.32C81.3799 153.97 82.4793 152.871 83.8305 152.871H123.217C124.568 152.871 125.668 153.97 125.668 155.32C125.668 156.671 124.568 157.769 123.217 157.769Z" fill="#F2F2F2"/>
<path d="M153.955 166.058H83.8305C82.4793 166.058 81.3799 164.959 81.3799 163.609C81.3799 162.259 82.4793 161.16 83.8305 161.16H153.955C155.306 161.16 156.405 162.259 156.405 163.609C156.405 164.959 155.306 166.058 153.955 166.058Z" fill="#F2F2F2"/>
<path d="M53.0483 200.308C52.4006 200.308 51.874 200.834 51.874 201.482V219.67C51.874 220.317 52.4006 220.843 53.0483 220.843C53.6959 220.843 54.2225 220.317 54.2225 219.67V201.482C54.2225 200.834 53.6959 200.308 53.0483 200.308Z" fill="#212069"/>
<path d="M64.5562 217.834C68.5975 217.834 71.8736 214.629 71.8736 210.676C71.8736 206.722 68.5975 203.517 64.5562 203.517C60.5149 203.517 57.2388 206.722 57.2388 210.676C57.2388 214.629 60.5149 217.834 64.5562 217.834Z" fill="#AED136"/>
<path d="M123.217 208.227H83.83C82.4788 208.227 81.3794 207.128 81.3794 205.778C81.3794 204.428 82.4788 203.329 83.83 203.329H123.217C124.568 203.329 125.667 204.428 125.667 205.778C125.667 207.128 124.568 208.227 123.217 208.227Z" fill="#F2F2F2"/>
<path d="M153.954 216.515H83.83C82.4788 216.515 81.3794 215.417 81.3794 214.067C81.3794 212.716 82.4788 211.618 83.83 211.618H153.954C155.305 211.618 156.405 212.716 156.405 214.067C156.405 215.417 155.305 216.515 153.954 216.515Z" fill="#F2F2F2"/>
<path d="M423.052 163.179C422.326 168.705 384.684 155.622 380.192 153.205C371.791 148.693 380.581 153.321 380.581 153.321L379.605 125.629L378.587 109.129C378.587 109.129 378.017 104.747 376.826 99.1551C376.555 97.8996 376.268 96.4445 376.086 94.9014C375.569 90.4482 375.962 85.2734 380.348 82.1404L395.643 59.3523L403.175 58.9122L409.733 68.8571L417.096 80.0223C418.934 84.4814 420.149 89.1458 420.736 93.8747C421.012 96.0866 421.153 98.3161 421.153 100.552C421.153 104.488 420.724 108.437 419.855 112.321L415.246 125.235C415.246 125.235 414.666 127.42 416.691 128.644C420.798 131.126 412.484 137.95 417.571 146.403C417.571 146.403 417.096 150.287 419.362 150.628C421.628 150.974 423.358 160.852 423.052 163.179Z" fill="#AED136"/>
<path d="M349.924 176.455L361.093 161.173L370.719 166.331L358.335 182.068C358.37 182.679 358.318 183.304 358.166 183.929C357.339 187.328 353.911 189.414 350.51 188.588C347.108 187.761 345.021 184.336 345.848 180.936C346.375 178.769 347.962 177.14 349.924 176.455Z" fill="#FFB6B6"/>
<path d="M397.095 80.0548C394.546 78.223 391.562 76.9274 388.278 76.3524C383.797 75.5712 381.283 82.0152 380.296 88.3002C379.841 91.2132 379.707 94.0936 379.863 96.1961L379.6 98.0353L379.445 107.556L379.081 129.566L367.862 146.164L363.165 157.312L353.567 169.572C353.754 169.753 354.041 170.015 354.393 170.345C356.234 172.047 359.992 175.44 362.361 176.954C363.184 177.476 363.833 177.773 364.183 177.7C364.293 177.676 371.052 171.17 371.385 170.806C373.627 168.368 374.068 165.095 380.846 155.582C387.02 146.925 393.04 138.316 395.215 135.201L395.254 135.145L405.027 102.936L405.916 100.017C406.863 92.0211 403.259 84.4792 397.095 80.0548Z" fill="#AED136"/>
<path d="M391.554 80.5372C391.536 80.5302 391.519 80.5219 391.501 80.5148C391.35 80.5273 391.201 80.5363 391.055 80.5372H391.554Z" fill="#212069"/>
<path d="M395.937 55.2446C405.368 55.2446 413.015 47.6037 413.015 38.1782C413.015 28.7526 405.368 21.1117 395.937 21.1117C386.505 21.1117 378.858 28.7526 378.858 38.1782C378.858 47.6037 386.505 55.2446 395.937 55.2446Z" fill="#FFB6B6"/>
<path d="M372.814 33.4346C371.661 25.1611 375.023 22.6299 380.282 21.8801C390.688 16.476 393.071 17.8345 396.371 18.421L397.583 18.1604C401.303 17.3605 402.653 17.7017 405.962 18.9516C412.941 21.5814 417.525 28.2498 418.033 35.6856C418.382 40.8116 416.774 41.6097 419.748 45.7726C422.235 49.248 420.333 54.126 416.158 55.0236L412.272 60.8942C411.326 59.699 410.57 58.4466 409.713 56.8772C409.375 58.2775 409.337 59.8809 409.514 61.4874C405.645 63.413 401.422 64.2098 396.942 64.1904C396.221 63.2309 395.576 62.1622 395.661 60.9584C395.412 62.1646 395.108 63.3664 395.055 64.596C392.237 62.7826 389.908 63.3154 388.048 66.1026C383.351 62.212 382.983 53.2976 388.567 51.0646C393.291 49.1755 385.839 35.9506 380.758 35.681C380.726 35.6792 379.372 40.7924 379.324 40.6963C378.607 39.2634 378.935 38.4779 378.078 36.9085C377.797 38.089 377.72 39.4111 377.813 40.757C376.603 40.4928 375.377 40.1062 374.14 39.5909C372.705 37.6435 372.15 35.6033 372.814 33.4346V33.4346Z" fill="#212069"/>
<path d="M436.144 340.83C437.357 340.906 438.027 339.4 437.109 338.523L437.018 338.16C437.03 338.131 437.042 338.102 437.054 338.073C438.281 335.15 442.438 335.17 443.654 338.097C444.734 340.695 446.108 343.298 446.446 346.045C446.598 347.258 446.53 348.493 446.261 349.683C448.79 344.162 450.121 338.132 450.121 332.069C450.121 330.546 450.038 329.022 449.867 327.503C449.727 326.26 449.533 325.025 449.283 323.801C447.929 317.184 444.998 310.882 440.77 305.618C438.737 304.508 437.042 302.772 436.018 300.692C435.65 299.942 435.362 299.135 435.226 298.312C435.457 298.343 436.098 294.822 435.923 294.606C436.246 294.117 436.823 293.874 437.175 293.397C438.926 291.025 441.338 291.439 442.597 294.663C445.288 296.02 445.314 298.27 443.663 300.434C442.613 301.811 442.469 303.674 441.547 305.148C441.642 305.27 441.74 305.387 441.835 305.509C443.574 307.737 445.077 310.132 446.345 312.648C445.987 309.852 446.516 306.483 447.417 304.311C448.444 301.837 450.367 299.753 452.062 297.614C454.097 295.044 458.269 296.166 458.628 299.423C458.631 299.454 458.635 299.486 458.638 299.517C458.386 299.659 458.14 299.81 457.899 299.969C456.526 300.877 457 303.005 458.628 303.256L458.665 303.261C458.574 304.167 458.418 305.065 458.191 305.948C460.364 314.347 455.672 317.407 448.972 317.544C448.824 317.62 448.68 317.696 448.532 317.768C449.211 319.678 449.753 321.637 450.155 323.622C450.515 325.377 450.766 327.15 450.906 328.932C451.08 331.179 451.065 333.437 450.876 335.681L450.887 335.601C451.369 333.13 452.711 330.823 454.66 329.223C457.564 326.84 461.666 325.962 464.799 324.046C466.307 323.124 468.239 324.316 467.976 326.063L467.963 326.146C467.496 326.336 467.041 326.555 466.601 326.802C466.35 326.944 466.103 327.094 465.862 327.254C464.489 328.161 464.964 330.289 466.591 330.54L466.628 330.546C466.655 330.55 466.677 330.553 466.704 330.557C465.904 332.456 464.789 334.218 463.393 335.737C462.034 343.07 456.198 343.765 449.954 341.63H449.95C449.268 344.601 448.27 347.504 446.989 350.27H436.409C436.371 350.153 436.337 350.032 436.303 349.914C437.281 349.975 438.267 349.918 439.23 349.74C438.445 348.777 437.66 347.807 436.875 346.845C436.856 346.826 436.841 346.807 436.826 346.788C436.428 346.295 436.026 345.806 435.628 345.314L435.627 345.313C435.602 343.801 435.784 342.293 436.143 340.831L436.144 340.83V340.83Z" fill="#F2F2F2"/>
<path d="M317.81 350.302C317.81 350.689 318.121 351 318.508 351H467.219C467.607 351 467.918 350.689 467.918 350.302C467.918 349.915 467.607 349.604 467.219 349.604H318.508C318.121 349.604 317.81 349.915 317.81 350.302Z" fill="#CCCCCC"/>
<path d="M243.082 82.5605H223.284C222.054 82.5605 221.054 81.5611 221.054 80.3327C218.437 72.6869 218.488 65.1949 221.054 57.848C221.054 56.6196 222.054 55.6202 223.284 55.6202H243.082C244.311 55.6202 245.311 56.6196 245.311 57.848V80.3327C245.311 81.5611 244.311 82.5605 243.082 82.5605Z" fill="#E6E6E6"/>
<path d="M227.525 56.2839C224.318 56.2839 221.718 58.8821 221.718 62.087V79.8556C221.718 80.9829 222.633 81.8967 223.761 81.8967H234.709C240.198 81.8967 244.647 77.4505 244.647 71.9659V58.325C244.647 57.1977 243.732 56.2839 242.604 56.2839H227.525Z" fill="white"/>
<path d="M237.794 62.8182H228.524C228.291 62.8182 228.101 62.6282 228.101 62.3946C228.101 62.1611 228.291 61.9712 228.524 61.9712H237.794C238.028 61.9712 238.218 62.1611 238.218 62.3946C238.218 62.6282 238.028 62.8182 237.794 62.8182Z" fill="#E6E6E6"/>
<path d="M237.794 71.8492H228.524C228.291 71.8492 228.101 71.6592 228.101 71.4257C228.101 71.1921 228.291 71.0022 228.524 71.0022H237.794C238.028 71.0022 238.218 71.1921 238.218 71.4257C238.218 71.6592 238.028 71.8492 237.794 71.8492Z" fill="#E6E6E6"/>
<path d="M242.768 67.3366H223.55C223.317 67.3366 223.126 67.1466 223.126 66.9131C223.126 66.6795 223.317 66.4896 223.55 66.4896H242.768C243.001 66.4896 243.191 66.6796 243.191 66.9131C243.191 67.1466 243.001 67.3366 242.768 67.3366Z" fill="#E6E6E6"/>
<path d="M242.994 75.5213H234.976C234.742 75.5213 234.552 75.3313 234.552 75.0978C234.552 74.8642 234.742 74.6743 234.976 74.6743H242.994C243.228 74.6743 243.418 74.8642 243.418 75.0978C243.418 75.3313 243.228 75.5213 242.994 75.5213Z" fill="#E6E6E6"/>
</svg>
